<?xml version="1.0" encoding="utf-8"?>
<!-- Generator: Adobe Illustrator 22.0.1, SVG Export Plug-In . SVG Version: 6.00 Build 0)  -->
<svg version="1.1" id="Layer_1" xmlns="http://www.w3.org/2000/svg" xmlns:xlink="http://www.w3.org/1999/xlink" x="0px" y="0px"
	 viewBox="0 0 1173 431.2" style="enable-background:new 0 0 1173 431.2;" xml:space="preserve">
<style type="text/css">
	.st0{fill:#002D3C;}
</style>
<title>Hiber_logoWhite_v01</title>
<path class="st0" d="M580.6,188.7v105.2h-41.1V199c0-23.3-14.4-33.2-32.2-33.2c-21.2,0-32.2,21.2-32.2,21.2v106.9H434V78.4h41.1
	v63.7c0,0,14.4-14.7,45.9-14.7S580.6,149.6,580.6,188.7z M666.9,78.7H708v67.6c0,0,15.1-19,45.9-19c42.1,0,79.1,35.3,79.1,85.3
	s-37,85.3-79.1,85.3c-34.9,0-49-21-49-21v16.9h-38V78.7z M708,236.9c0,0,11.7,22.6,38.7,22.6c27.8,0,44.5-20.2,44.5-46.9
	s-16.8-46.9-44.5-46.9c-27.1,0-38.7,26-38.7,26V236.9z M1005.3,211.9c0,3.1,0,9.2-0.3,15.4H883.7c3.1,14.4,19.9,32.9,45.6,32.9
	c28.4,0,44.5-16.4,44.5-16.4l20.6,30.8c0,0-25.7,23.3-65.1,23.3c-49.3,0-87.3-37.7-87.3-85.3s34.6-85.3,81.5-85.3
	C968,127.3,1005.3,161.9,1005.3,211.9L1005.3,211.9z M964.2,197.5c-0.7-14-13.7-32.9-40.8-32.9c-26.4,0-38.3,18.5-39.7,32.9H964.2z
	 M1129.7,132.5l-14.4,37c0,0-7.5-3.8-19.5-3.8c-25,0-36.3,21.9-36.3,21.9v106.2h-41.1V131.5h39v16.8c0,0,14-21,44.2-21
	C1111.1,127.5,1120.6,129.2,1129.7,132.5L1129.7,132.5z M1143.1,255.3c10.5,0,19,8.5,19,19s-8.5,19-19,19s-19-8.5-19-19
	c0-10.4,8.4-18.9,18.8-19C1143,255.3,1143,255.3,1143.1,255.3L1143.1,255.3z M1143.1,289.4c8.4,0,15.2-6.7,15.2-15.1
	s-6.7-15.2-15.1-15.2s-15.2,6.7-15.2,15.1v0.1C1128,282.6,1134.7,289.4,1143.1,289.4L1143.1,289.4z M1137.2,264.2h6.4
	c4,0,6.6,2.5,6.6,6.1c0.1,2.8-1.8,5.3-4.5,5.9l5.1,7.8h-4l-4.8-7.5h-1.5v7.5h-3.4L1137.2,264.2z M1143.3,273.3c2.3,0,3.8-1,3.8-3
	s-1.5-3-3.8-3h-2.7v6.1L1143.3,273.3z M603.4,131.5h41.1v162.4h-41.1V131.5z M598.4,78.6c0.3,13.9,11.8,24.9,25.6,24.6
	c13.5-0.3,24.4-11.1,24.6-24.6C632,79.3,615.2,79.3,598.4,78.6L598.4,78.6z"/>
<path class="st0" d="M160.7,77.9c0.4,24.1,20.2,43.4,44.4,43c23.6-0.4,42.7-19.4,43-43C219,79.1,189.8,79.1,160.7,77.9z"/>
<path class="st0" d="M398.4,95.1c0-12.3-5.1-24-14.2-32.2c-17.5,3.1-35,5.7-52.6,7.8c-18.3-18.3-36.4-36.9-54.2-55.7l-4,0.1
	l-68.5,5.4l-73.6-5.4H129c-17.9,18.8-36,37.4-54.4,55.7c-16.7-2.1-33.3-4.6-49.8-7.5c-0.3,0.3-0.7,0.6-1,0.9
	c-17.1,17.1-17.1,44.7,0,61.8c9.3,9.3,22.3,13.9,35.4,12.6c-0.2,2.7-0.3,5.5-0.5,8.2c-0.1,1.9-0.2,3.8-0.4,5.7
	c-0.4,6.5-0.8,13-1.3,19.4c-0.1,1.3-0.2,2.6-0.3,4c-2.8,39.5-6.3,78.8-10.7,117.9c51,42.6,103.4,83.4,157.3,122.5
	c53.7-39,106-79.8,156.9-122.2c-4.4-39.2-7.9-78.7-10.7-118.4c-0.1-1.2-0.2-2.3-0.2-3.5c-0.5-6.6-0.9-13.2-1.3-19.8
	c-0.1-1.8-0.2-3.6-0.3-5.5c-0.2-2.9-0.3-5.8-0.5-8.8c23.8,4.1,46.4-11.8,50.5-35.6C398.2,100.1,398.4,97.6,398.4,95.1z M216.7,214.2
	c-4.5-5.4-8.9-11.5-13.4-16.8c-4.6,5.4-9.6,11.3-14.2,16.7c-44.6-7.7-74.5-50.1-66.8-94.7s50.1-74.5,94.7-66.8s74.5,50.1,66.8,94.7
	C277.8,181.6,251,208.4,216.7,214.2L216.7,214.2z"/>
</svg>
