<?xml version="1.0" encoding="utf-8"?>
<!-- Generator: Adobe Illustrator 22.0.1, SVG Export Plug-In . SVG Version: 6.00 Build 0)  -->
<svg version="1.1" id="Black" xmlns="http://www.w3.org/2000/svg" xmlns:xlink="http://www.w3.org/1999/xlink" x="0px" y="0px"
	 viewBox="0 0 820 1080" style="enable-background:new 0 0 820 1080;" xml:space="preserve">
<style type="text/css">
	.st0{fill:#002D3C;}
</style>
<g>
	<path class="st0" d="M220.7,942.5v106.3h-41.6v-95.9c0-23.5-14.5-33.6-32.6-33.6c-21.5,0-32.6,21.5-32.6,21.5v108H72.5V831.1h41.6
		v64.4c0,0,14.5-14.9,46.4-14.9S220.7,903.1,220.7,942.5z M308,831.3h41.6v68.4c0,0,15.2-19.2,46.4-19.2c42.6,0,80,35.7,80,86.2
		c0,50.6-37.4,86.2-80,86.2c-35.3,0-49.5-21.3-49.5-21.3v17.1H308V831.3z M349.5,991.3c0,0,11.8,22.9,39.1,22.9
		c28.1,0,45-20.4,45-47.4c0-27-17-47.4-45-47.4c-27.4,0-39.1,26.3-39.1,26.3V991.3z M650.1,966.1c0,3.1,0,9.3-0.3,15.6H527.2
		c3.1,14.5,20.1,33.2,46,33.2c28.7,0,45-16.6,45-16.6l20.8,31.2c0,0-26,23.5-65.8,23.5c-49.9,0-88.3-38.1-88.3-86.2
		c0-48.1,35-86.2,82.4-86.2C612.4,880.5,650.1,915.5,650.1,966.1z M608.6,951.5c-0.7-14.2-13.9-33.2-41.2-33.2
		c-26.7,0-38.8,18.7-40.2,33.2H608.6z M775.8,885.8l-14.5,37.4c0,0-7.6-3.8-19.7-3.8c-25.3,0-36.7,22.2-36.7,22.2v107.4h-41.6V884.7
		h39.5v17c0,0,14.2-21.2,44.7-21.2C762.3,880.5,775.8,885.8,775.8,885.8z M789.4,1009.9c10.6,0,19.1,8.6,19.1,19.2
		c0,10.6-8.5,19.2-19.1,19.2c-10.6,0-19.2-8.6-19.2-19.2C770.2,1018.5,778.8,1009.9,789.4,1009.9z M789.4,1044.4
		c8.5,0,15.4-6.8,15.4-15.3s-6.9-15.4-15.4-15.4s-15.3,6.9-15.3,15.4S780.9,1044.4,789.4,1044.4z M783.4,1018.9h6.5
		c4,0,6.7,2.5,6.7,6.2c0,3-1.7,5.2-4.6,5.9l5.2,7.9h-4l-4.9-7.5h-1.5v7.5h-3.4V1018.9z M789.6,1028.1c2.3,0,3.8-1.1,3.8-3.1
		c0-2-1.5-3.1-3.8-3.1h-2.8v6.1H789.6z M243.8,884.7h41.6v164.1h-41.6V884.7z M238.8,831.3c0.1,6.4,2.6,12.7,7.4,17.6
		c9.9,9.9,26,9.9,35.9,0c4.9-4.9,7.3-11.2,7.4-17.6C272.7,832,255.7,832,238.8,831.3z"/>
	<g>
		<g>
			<path class="st0" d="M330.6,145.8c0.3,19.1,7.7,38,22.2,52.6c29.7,29.7,77.9,29.7,107.6,0c14.5-14.5,22-33.5,22.2-52.6
				C432,147.9,381.2,147.9,330.6,145.8z"/>
			<path class="st0" d="M744.2,175.7c0-22.2-9.5-42.2-24.7-56.1c-30.4,5.3-60.9,9.8-91.5,13.6c-31.9-31.9-63.4-64.2-94.5-96.9
				c-2.3,0.1-4.6,0.1-7,0.1l-119,9.5l-128-9.5c-1.4,0-2.7,0-4.1-0.1c-31.1,32.7-62.6,65.1-94.6,97c-29-3.6-57.9-8-86.7-13
				c-0.6,0.5-1.2,1.1-1.7,1.6c-29.7,29.7-29.7,77.9,0,107.6c16.9,16.9,39.7,24.1,61.7,21.9c-0.3,4.8-0.5,9.5-0.8,14.3
				c-0.2,3.3-0.4,6.6-0.6,9.9c-0.7,11.3-1.4,22.6-2.2,33.8c-0.2,2.3-0.3,4.6-0.5,6.9c-4.8,68.8-11,137.1-18.6,205.1
				c88.7,74.1,179.9,145.1,273.6,213.1c93.4-67.8,184.5-138.7,272.9-212.5c-7.6-68.3-13.8-137-18.6-206c-0.1-2-0.3-4.1-0.4-6.1
				c-0.8-11.5-1.5-22.9-2.2-34.4c-0.2-3.2-0.4-6.3-0.6-9.5c-0.3-5.1-0.6-10.1-0.9-15.2c4.2,0.7,8.5,1.1,12.9,1.1
				C710.1,251.7,744.2,217.7,744.2,175.7z M428,382.9c-7.8-9.3-15.5-20-23.3-29.2c-7.9,9.5-16.7,19.7-24.8,29.1
				c-67.2-11.5-118.3-70-118.3-140.5c0-78.7,63.8-142.6,142.6-142.6c78.7,0,142.6,63.8,142.6,142.6
				C546.8,312.9,495.4,371.5,428,382.9z"/>
		</g>
	</g>
</g>
</svg>
